<?xml version="1.0" encoding="utf-8"?>
<!-- Generator: Adobe Illustrator 18.1.1, SVG Export Plug-In . SVG Version: 6.00 Build 0)  -->
<!DOCTYPE svg PUBLIC "-//W3C//DTD SVG 1.1//EN" "http://www.w3.org/Graphics/SVG/1.1/DTD/svg11.dtd">
<svg version="1.1" id="Layer_1" xmlns="http://www.w3.org/2000/svg" xmlns:xlink="http://www.w3.org/1999/xlink" x="0px" y="0px"
	 viewBox="0 0 610.9 143.5" enable-background="new 0 0 610.9 143.5" xml:space="preserve">
<path fill="#FFFFFF" d="M49.3,94.7c6.8,5.3,13.5,8.2,13.7,8.3l0.5,0.2l0.5-0.2c0.3-0.1,6.9-3,13.7-8.3c9.1-7.1,13.9-15.2,13.9-23.4
	l0-37.6l-56.3,0l0,36.9C35.4,79.2,40.2,87.5,49.3,94.7z M62.3,83.2c-0.3-0.1-0.6-0.2-1-0.2h-0.1c-1.4,0-2.4,0.1-3.5,0.2
	c-1.1,0.1-2.2,0.2-3.8,0.2c-0.7,0-1.4,0-1.9,0V65.8h0.2c0.7,0,1.5,0,2.6,0c0.9,0,1.9-0.1,3-0.2c0.6-0.1,1.3-0.1,2-0.2
	c1.2-0.1,2.2,0.1,2.2,0.1c0.1,0,0.2,0.1,0.3,0.1L62.3,83.2L62.3,83.2z M89,71.3c0,15.4-18.9,25.8-24.5,28.5v-14
	c0.1-0.1,0.2-0.2,0.3-0.3c0.3-0.3,0.5-0.5,1-0.5c1.3,0,2.3,0.1,3.4,0.2c1.1,0.1,2.2,0.2,3.9,0.2c1.7,0,3,0,3,0l0.9-0.1l0-5.2h2.2
	v-2.8h-2.2l0-5.1h2.2v-2.8h-2.2l0-5.7l-1,0c-0.4,0-0.8,0-1.3,0c-0.7,0-1.5,0-2.5,0c-0.8,0-1.7-0.1-2.8-0.2c-0.6-0.1-1.3-0.1-2-0.2
	c-1.5-0.2-2.8,0.1-2.9,0.1c0,0,0,0-0.1,0v-5.4H89L89,71.3z M64.6,83.3V65.5c0.1-0.1,0.3-0.1,0.5-0.2c0,0,1.1-0.2,2.3-0.1
	c0.7,0.1,1.4,0.1,2,0.2c1.1,0.1,2.1,0.2,3,0.2c0.9,0,1.6,0,2.2,0h0.5l0,17.7c-0.5,0-1.2,0-1.9,0c-1.6,0-2.7-0.1-3.8-0.2
	c-1.1-0.1-2.1-0.2-3.5-0.2C65.3,83,64.9,83.1,64.6,83.3z M38.1,36.4l51,0l0,19.1h-51L38.1,36.4z M38.1,58.1h24.2v5.3
	c-0.4-0.1-1.5-0.2-2.7-0.1c-0.7,0.1-1.4,0.1-2,0.2c-1.1,0.1-2,0.2-2.8,0.2c-1,0-1.8,0-2.5,0c-0.5,0-0.9,0-1.3,0l-1,0v5.1h-2.4v2.8
	H50v5.1h-2.4v2.8H50v5.7l0.9,0.1c0.1,0,1.4,0.1,3,0c1.7,0,2.9-0.1,3.9-0.2c1.1-0.1,2-0.2,3.3-0.2c0.5,0,0.7,0.1,0.9,0.5
	c0,0,0.1,0.1,0.1,0.2v14c-5.9-2.9-24.2-13.2-24.2-29.1L38.1,58.1z M59.4,38.3H45.1v1c0,3.1,0,8.4,0,8.6c0.1,1.1,0.8,2.1,2.2,3
	c1.7,1.2,4.3,2.7,4.4,2.7l0.5,0.3l0.5-0.3c0.1-0.1,2.9-1.6,4.6-2.7c2-1.3,2.1-2.6,2.1-3c0-0.2,0-4.8,0-8.6L59.4,38.3L59.4,38.3z
	 M47.1,40.3h10.2c0,0.8,0,1.7,0,2.6H47.1C47.1,42,47.1,41.1,47.1,40.3z M57.3,47.8c0,0.5-0.7,1-1.2,1.4c-1.2,0.8-3.1,1.9-4,2.4
	c-0.8-0.5-2.6-1.5-3.8-2.4c-0.8-0.5-1.3-1.1-1.3-1.4c0-0.1,0-1.3,0-2.9h10.2C57.4,46.4,57.4,47.6,57.3,47.8z M83.6,37.8H69v1
	c0,3.9,0,8.6,0,8.8c0.1,1.1,0.8,2.1,2.2,3c1.8,1.2,4.4,2.7,4.5,2.8l0.5,0.3l0.5-0.3c0.1-0.1,3-1.6,4.7-2.8c2.1-1.4,2.1-2.6,2.1-3
	c0-0.2,0-4.9,0-8.8L83.6,37.8z M81.6,47.6c0,0.5-0.7,1.1-1.2,1.4c-1.3,0.8-3.2,1.9-4.1,2.4c-0.9-0.5-2.6-1.6-3.9-2.4
	c-0.4-0.3-1.3-0.9-1.3-1.5c0-0.1,0-0.2,0-0.5l5-3.6l5.5,3.7C81.6,47.3,81.6,47.5,81.6,47.6z M76,40.9l-5,3.6c0-1.4,0-3.2,0-4.7h10.5
	c0,1.6,0,3.3,0,4.8L76,40.9z M67.2,69.5l0.9,0.1c0.6,0.1,1.2,0.1,1.7,0.1l2.9,0.1l0-2l-2.9-0.1c-0.4,0-0.9-0.1-1.5-0.1l-1-0.1
	c-0.3,0-0.5,0-0.7,0l0.1,2C66.9,69.5,67,69.5,67.2,69.5z M69.9,73.3c-0.4,0-0.9-0.1-1.4-0.1c-0.3,0-0.7-0.1-1-0.1
	c-0.3,0-0.5,0-0.7,0l0,2c0.1,0,0.3,0,0.5,0c0.4,0,0.7,0.1,1,0.1c0.6,0.1,1.1,0.1,1.6,0.1c0.6,0,1.5,0,2.2,0l0.8,0l0-2l-0.8,0
	C71.4,73.3,70.5,73.3,69.9,73.3z M69.9,79c-0.4,0-0.9-0.1-1.5-0.1c-0.3,0-0.7-0.1-1-0.1c-0.3,0-0.5,0-0.7,0l0.1,2c0.1,0,0.3,0,0.5,0
	c0.4,0,0.7,0.1,1,0.1c0.6,0.1,1.2,0.1,1.6,0.1l0.8,0c0.8,0,1.8,0,2.1,0.1l0-2c-0.3,0-1.3,0-2.1,0L69.9,79z M57.3,69.7
	c0.5,0,1-0.1,1.7-0.1c0.3,0,0.6-0.1,1-0.1c0.2,0,0.3,0,0.5,0l0-2c-0.2,0-0.4,0-0.7,0c-0.4,0-0.7,0.1-1,0.1c-0.6,0.1-1.1,0.1-1.5,0.1
	l-2.9,0.1l0,2L57.3,69.7z M58.7,73.1c-0.6,0.1-1.1,0.1-1.5,0.1l-2.9,0.1l0,2l2.9-0.1c0.5,0,1-0.1,1.7-0.1l0.9-0.1c0.2,0,0.3,0,0.4,0
	l0.1-2c-0.2,0-0.4,0-0.7,0L58.7,73.1z M58.7,78.8c-0.6,0.1-1.1,0.1-1.6,0.1c-0.9,0-2.4,0.1-2.8,0.1l0,2c0.4,0,1.9-0.1,2.9-0.1
	c0.5,0,1-0.1,1.7-0.1l1-0.1c0.1,0,0.3,0,0.4,0l0-2c-0.2,0-0.4,0-0.7,0L58.7,78.8z M12.9,63.4c2.5,0,4-1.6,4.2-4.4
	c0-0.5,0-1.1-0.1-1.9l0-0.2l-2.1,0l0.2,0.4c0.1,0.3,0.2,1,0.2,1.6c-0.1,1.4-1.2,2.3-2.7,2.2C10.9,61,10,60,10,58.6
	c0-0.5,0.1-1,0.5-1.5l0.3-0.4l-2-0.3l-0.1,0.2c-0.3,0.5-0.4,1.3-0.5,1.9c-0.2,2.9,1.4,4.8,4.3,4.9C12.6,63.4,12.7,63.4,12.9,63.4z
	 M13.2,53.6c0.6,0.2,1.1,0.2,1.6,0.2c1.9,0,3.3-1.1,3.9-3c0.3-1.2,0.2-2.2-0.3-3.1c-0.5-1-1.6-1.7-2.9-2.1c-0.5-0.2-1.1-0.2-1.5-0.2
	c-1.9,0-3.3,1.1-3.9,3C9.4,50.8,10.6,52.8,13.2,53.6z M11.9,48.8c0.3-1.1,1.2-1.3,1.9-1.3c0.3,0,0.7,0.1,1.1,0.2
	c0.9,0.3,1.6,0.7,1.9,1.3c0.2,0.4,0.3,0.8,0.1,1.3c-0.3,1.1-1.2,1.3-1.9,1.3c-0.4,0-0.7-0.1-1.1-0.2C12.7,51.1,11.5,50.2,11.9,48.8z
	 M21.8,42.3l-2.9-1.6l0.1-0.2c0.3-0.5,0.5-0.5,0.9-0.4l2.9,0.4l1.1-2.1L20.1,38c-0.3,0-0.5,0-0.7,0c0-0.8-0.4-1.6-1.2-2
	c-0.4-0.2-0.8-0.3-1.2-0.3c-1.4,0-2.1,1.4-2.8,2.6l-1,1.9l7.6,4.1L21.8,42.3z M17.3,39.7l-0.1,0.2l-1.4-0.7l0.1-0.2
	c0.3-0.6,0.7-1.2,1.3-0.9c0.2,0.1,0.3,0.2,0.4,0.4C17.7,38.9,17.5,39.4,17.3,39.7z M26.6,34.8l-3.9-3.2l5.6,1.3l1.5-1.9l-6.6-5.5
	l-1.4,1.6l3.9,3.2l-5.5-1.3L18.6,31l6.6,5.5L26.6,34.8z M36.2,25.5L35,24.1l-2.4,2l-1-1.3l2.2-1.8l-1.2-1.4l-2.2,1.8l-0.9-1.1
	l2.4-1.9l-1.2-1.4l-4.1,3.3l5.4,6.7L36.2,25.5z M43.3,21.2l-0.9-1.6l-2.7,1.5l-3.3-5.9l-1.9,1.1l4.2,7.5L43.3,21.2z M50.6,18.4
	l-0.6-1.8l-2.9,1l-2.3-6.4l-2.1,0.7l2.9,8.1L50.6,18.4z M59.3,17c0.2,0,0.3,0,0.5,0c1.2-0.1,2.1-0.5,2.6-1.1
	c0.5-0.6,0.7-1.5,0.6-2.5L62.6,8l-2.2,0.2l0.4,4.9c0.1,1.7-0.6,2-1.2,2.1c-0.1,0-0.1,0-0.2,0c-0.5,0-1.2-0.2-1.3-1.9l-0.4-4.9
	l-2.2,0.2L56,14C56.2,16,57.3,17,59.3,17z M69.1,11.9l1.9,5.4l2.4,0.3L74.6,9l-2.1-0.3l-0.7,5l-1.9-5.4l-2.4-0.3l-1.2,8.6l2.1,0.3
	L69.1,11.9z M81,10.9L79,10.2l-2.6,8.2l2.1,0.7L81,10.9z M91.9,15.7l-2-1L85.7,19l0.9-5.9L84.6,12l-1.3,9l2.1,1.1L91.9,15.7z
	 M94,28.1l1.2-1.5l-2.5-1.9l1-1.3l2.2,1.7l1.1-1.5l-2.2-1.7l0.8-1.1l2.4,1.9l1.2-1.5L95.2,18l-5.3,6.8L94,28.1z M97.6,31.7l2.5-2.2
	l0.1,0.2c0.3,0.4,0.3,0.5,0.1,1L99,33.2l1.6,1.8l1.7-3.4c0.1-0.1,0.2-0.4,0.2-0.7c0.7,0.3,1.6,0.2,2.3-0.4c1.9-1.6,0.4-3.3-0.7-4.6
	l-1.4-1.6L96.2,30L97.6,31.7z M102.7,27.2l0.1,0.2c0.3,0.4,0.6,0.8,0.6,1.1c0,0.2-0.1,0.3-0.3,0.4c-0.2,0.1-0.3,0.2-0.5,0.2
	c-0.4,0-0.8-0.4-1-0.7l-0.1-0.2L102.7,27.2z M105.6,38.6c-0.4,0.2-1-0.2-1.2-0.6c-0.3-0.5-0.4-1-0.4-1.7l0-0.5l-2,0.9l0.1,0.4
	c0.2,0.7,0.3,1.1,0.7,1.8c0.7,1.2,1.6,1.8,2.6,1.8c0.5,0,0.9-0.1,1.4-0.4c1.5-0.9,1.3-2.3,1.1-3.4c-0.1-0.7-0.2-1.2,0.1-1.4
	c0.2-0.1,0.3-0.1,0.4-0.1c0.4,0,0.7,0.4,0.8,0.5c0.2,0.4,0.4,0.9,0.5,1.4l0.1,0.4l1.8-0.8l0-0.2c-0.1-0.6-0.4-1.2-0.8-1.9
	c-0.9-1.6-2.5-2.1-3.9-1.2c-1.5,0.9-1.3,2.3-1.1,3.3C106,37.9,106,38.4,105.6,38.6z M106.6,46.4l8-3.3l-0.8-2l-8,3.3L106.6,46.4z
	 M114.7,49.2l-6.6,1.6l0.5,2.1l6.6-1.6l0.5,2.2l1.8-0.4l-1.6-6.5l-1.8,0.4L114.7,49.2z M109.6,59.7l0.1,2.2l3.4-0.2l5.4,2.8
	l-0.1-2.4l-3.2-1.6l3-1.9l-0.1-2.6l-5.1,3.4L109.6,59.7z M14.5,79.5l1.8-0.5l-0.8-2.6l1.3-0.4l0.8,2.7l1.8-0.5l-1.4-4.9l-8.3,2.4
	l0.6,2.1l3.4-1L14.5,79.5z M22.2,86.6c0.3-1,0.2-2.1-0.3-3.2c-0.8-1.6-2-2.4-3.5-2.4c-0.7,0-1.5,0.2-2.3,0.6
	c-1.3,0.6-2.1,1.5-2.5,2.6c-0.3,1-0.2,2.1,0.3,3.2c0.8,1.5,2,2.4,3.6,2.4c0.7,0,1.5-0.2,2.3-0.6C21,88.6,21.9,87.7,22.2,86.6z
	 M18.8,87.1c-0.5,0.3-1.1,0.4-1.6,0.4c-0.8,0-1.3-0.3-1.6-1c-0.2-0.5-0.3-0.9-0.1-1.3c0.2-0.6,0.8-1.2,1.6-1.6
	c0.5-0.2,1-0.4,1.5-0.4c0.8,0,1.3,0.3,1.6,1c0.2,0.5,0.3,0.9,0.1,1.3C20.1,86.2,19.6,86.7,18.8,87.1z M28.2,93.3l-3.9,3.1
	c-1,0.8-1.8,0.9-2.4,0.2c-0.2-0.3-0.3-0.6-0.3-0.9c0.1-0.4,0.4-0.9,1-1.4l3.9-3.1l-1.4-1.7l-4.3,3.4c-0.9,0.7-1.4,1.5-1.4,2.3
	c0,0.8,0.3,1.6,1,2.5c0.8,1.1,1.7,1.6,2.7,1.6c0.7,0,1.4-0.3,2.1-0.9l4.3-3.4L28.2,93.3z M35.5,100.3l-3.2,3.9l1.2-5.6l-1.9-1.6
	l-5.5,6.7l1.7,1.3l3.2-3.9l-1.2,5.6l1.9,1.5l5.5-6.7L35.5,100.3z M41.9,104.4l-2.2-1.1l-3.9,7.7l2.2,1.1c1.1,0.5,2,0.8,2.9,0.8
	c1.5,0,2.7-0.8,3.5-2.4C45.6,107.9,44.8,105.9,41.9,104.4z M42.3,109.5c-0.4,0.9-1.2,1.4-2.1,1.4c-0.4,0-0.7-0.1-1.1-0.3l-0.5-0.3
	l2.2-4.4l0.5,0.3c0.6,0.3,1,0.8,1.2,1.3C42.7,108.2,42.6,108.8,42.3,109.5z M46.7,115.8l5.2,1.4l0.5-1.8l-3-0.8l0.4-1.6l2.8,0.7
	l0.5-1.8l-2.8-0.7l0.4-1.3l3,0.8l0.5-1.8l-5.1-1.4L46.7,115.8z M59.4,109.5l-2.5-0.1l-0.5,8.6l2.5,0.1c0.2,0,0.4,0,0.6,0
	c2.9,0,4.4-1.4,4.6-4c0.1-1.3-0.2-2.4-0.9-3.1C62.4,110.1,61.1,109.6,59.4,109.5z M59.3,116.3l-0.6,0l0.3-4.9l0.6,0
	c1.2,0.1,2.3,1,2.2,2.6C61.7,115.6,60.4,116.3,59.3,116.3z M71.7,108.9l-1.5,9.1l2.3-0.5l0.3-1.9l2.8-0.6l1.1,1.7l2.4-0.5l-5.1-7.7
	L71.7,108.9z M73,113.6l0.3-2.3l1.2,1.9L73,113.6z M79.9,113.3l0.7,2.1l2.1-0.7l-0.8-2.1L79.9,113.3z M84.1,104.6l-2.2,1.2l4.1,7.6
	l2.2-1.2c2.9-1.6,3.6-3.6,2.3-6.1C89.1,103.5,86.9,103,84.1,104.6z M87.6,110.4l-0.5,0.3l-2.3-4.3l0.5-0.3c0.3-0.2,0.7-0.3,1.1-0.3
	c0.9,0,1.6,0.5,2.1,1.3C89.2,108.5,88.6,109.8,87.6,110.4z M92.1,107.3l1.3,1.8l1.8-1.3l-1.3-1.8L92.1,107.3z M95.5,96.3l-0.4,3.4
	l1.9,0.3l0.2-1.4l4.1,4.2l1.6-1.6L96.8,95L95.5,96.3z M107.2,91.7c-0.7-0.5-1.5-0.6-2.4-0.3c0-0.9-0.4-1.6-1-2
	c-1.1-0.8-2.5-0.3-3.6,1.1c-1,1.4-0.9,2.8,0.3,3.7c0.6,0.4,1.4,0.5,2.1,0.3c-0.1,0.9,0.2,1.6,0.9,2.1c0.5,0.4,1,0.5,1.5,0.5
	c0.9,0,1.7-0.5,2.5-1.5c0.6-0.8,0.9-1.6,0.8-2.4C108.2,92.7,107.9,92.2,107.2,91.7z M103.1,92.4c-0.3,0.2-0.6,0.4-0.9,0.4
	c-0.1,0-0.3,0-0.4-0.1c-0.4-0.3-0.2-0.8,0-1.1c0.1-0.2,0.3-0.3,0.5-0.3c0.1,0,0.3,0.1,0.5,0.2C103.1,91.6,103.2,92,103.1,92.4z
	 M106.1,94.7c-0.3,0.4-0.8,0.5-1.2,0.2c-0.3-0.3-0.5-0.6-0.4-1.2c0.6-0.4,1.1-0.5,1.5-0.2c0.2,0.1,0.3,0.3,0.3,0.5
	C106.3,94.2,106.3,94.5,106.1,94.7z M111.2,83.3c-1.5-0.7-2.9-0.3-3.6,1.1c-0.2,0.4-0.3,0.8-0.2,1.2c-0.5-0.4-1-1.1-0.6-2
	c0.2-0.4,0.5-0.7,0.8-1l0.3-0.2l-1.6-1.1l-0.2,0.2c-0.4,0.4-0.8,0.9-1.1,1.5c-0.4,0.9-0.5,1.7-0.2,2.5c0.5,1.4,1.9,2.3,3,2.9
	c1,0.5,1.8,0.7,2.5,0.7c1.1,0,1.9-0.5,2.5-1.6C113.5,85.7,113,84.2,111.2,83.3z M111.1,86.6c-0.1,0.3-0.4,0.4-0.7,0.4
	c-0.2,0-0.5-0.1-0.7-0.2c-0.4-0.2-0.7-0.5-0.8-0.7c-0.1-0.2,0-0.3,0-0.5c0.1-0.3,0.3-0.4,0.6-0.4c0.2,0,0.5,0.1,0.8,0.2
	c0.4,0.2,0.6,0.4,0.7,0.7C111.2,86.2,111.2,86.4,111.1,86.6z M114.2,74.6c-1.7-0.5-3.1,0.3-3.6,1.9c0,0.2-0.1,0.3-0.1,0.4l-1-0.3
	l0.9-3l-1.7-0.5l-1.5,5l4.8,1.5l0-0.4c0-0.5,0.1-0.9,0.2-1.3c0.1-0.4,0.6-1.4,1.5-1.2c1,0.3,0.8,1.4,0.7,1.7c-0.2,0.6-0.5,1-0.8,1.4
	l-0.3,0.3l2,0.7l0.1-0.2c0.3-0.6,0.6-1.3,0.8-1.8c0.3-1,0.3-1.9-0.1-2.7C115.7,75.3,115,74.8,114.2,74.6z M19.8,63
	c0,24,19.5,43.5,43.5,43.5c24,0,43.5-19.5,43.5-43.5c0-24-19.5-43.5-43.5-43.5C39.3,19.5,19.8,39.1,19.8,63z M63.3,21
	c23.2,0,42,18.8,42,42c0,23.2-18.8,42-42,42c-23.2,0-42-18.8-42-42C21.3,39.9,40.2,21,63.3,21z M63.3,3.5
	C30.5,3.5,3.8,30.2,3.8,63.1c0,32.8,26.7,59.5,59.5,59.5c32.8,0,59.5-26.7,59.5-59.5C122.8,30.2,96.2,3.5,63.3,3.5z M63.3,121
	c-32,0-57.9-26-57.9-57.9c0-32,26-58,57.9-58c32,0,57.9,26,57.9,58C121.3,95,95.3,121,63.3,121z"/>
<g>
	<g opacity="0.63">
		<path fill="#FFFFFF" d="M156.8,45.2c1.1,0,2.1-0.2,2.9-0.6s1.7-1,2.5-1.8l2.1,2.2c-2,2.3-4.5,3.4-7.5,3.4s-5.3-0.9-7.3-2.8
			c-1.9-1.9-2.9-4.3-2.9-7.1c0-2.9,1-5.3,2.9-7.2c2-1.9,4.4-2.9,7.4-2.9s5.5,1.1,7.5,3.3l-2.1,2.3c-0.9-0.9-1.8-1.5-2.6-1.9
			c-0.8-0.3-1.8-0.5-2.9-0.5c-2,0-3.6,0.6-4.9,1.9s-2,2.9-2,4.8c0,2,0.7,3.6,2,4.9C153.5,44.6,155,45.2,156.8,45.2z"/>
		<path fill="#FFFFFF" d="M179.8,46.2c-1.5,1.5-3.3,2.2-5.5,2.2c-2.2,0-4.1-0.7-5.5-2.2c-1.5-1.5-2.2-3.3-2.2-5.4s0.7-3.9,2.2-5.4
			c1.5-1.5,3.3-2.2,5.5-2.2c2.2,0,4.1,0.7,5.5,2.2c1.5,1.5,2.2,3.3,2.2,5.4S181.3,44.7,179.8,46.2z M171,44.3c0.9,0.9,2,1.3,3.3,1.3
			s2.5-0.4,3.3-1.3c0.9-0.9,1.3-2,1.3-3.5s-0.4-2.6-1.3-3.5c-0.9-0.9-2-1.3-3.3-1.3s-2.5,0.4-3.3,1.3c-0.9,0.9-1.3,2.1-1.3,3.5
			S170.1,43.4,171,44.3z"/>
		<path fill="#FFFFFF" d="M193.3,36.4c-1.5,0-2.7,0.5-3.5,1.5c-0.8,1-1.2,2.3-1.2,4v6.3h-3.1V33.5h3.1v3c0.5-0.9,1.2-1.7,2-2.3
			c0.9-0.6,1.8-0.9,2.7-0.9l0,3.1C193.4,36.4,193.3,36.4,193.3,36.4z"/>
		<path fill="#FFFFFF" d="M199.6,40.2v8h-3.1V33.5h3.1v2.7c0.5-0.9,1.2-1.6,2.1-2.1c0.9-0.5,1.8-0.8,2.8-0.8c1.7,0,3,0.5,4,1.5
			c1,1,1.5,2.5,1.5,4.4v9H207v-8.1c0-2.7-1.1-4.1-3.4-4.1c-1.1,0-2,0.4-2.8,1.1C200,37.8,199.6,38.9,199.6,40.2z"/>
		<path fill="#FFFFFF" d="M228.1,42.2h-11.5c0.1,1.1,0.6,1.9,1.5,2.6s1.9,1,3.1,1c1.8,0,3.2-0.6,4.2-1.7l1.8,1.9
			c-1.6,1.6-3.7,2.5-6.2,2.5c-2.1,0-3.8-0.7-5.3-2.1s-2.2-3.2-2.2-5.5s0.7-4.2,2.2-5.5c1.5-1.4,3.2-2,5.2-2c2,0,3.7,0.6,5.1,1.8
			c1.4,1.2,2.1,2.9,2.1,5V42.2z M216.5,39.7h8.4c0-1.2-0.4-2.2-1.2-2.8c-0.8-0.7-1.7-1-2.9-1s-2.2,0.3-3.1,1S216.5,38.6,216.5,39.7z
			"/>
		<path fill="#FFFFFF" d="M234.6,48.2h-3.1V27.7h3.1V48.2z"/>
		<path fill="#FFFFFF" d="M242.2,48.2h-3.1V27.7h3.1V48.2z"/>
		<path fill="#FFFFFF" d="M259,43.8c0.9,1,2.1,1.5,3.6,1.5c1.5,0,2.7-0.5,3.6-1.5c0.9-1,1.3-2.4,1.3-4.2V28.9h3.3v10.8
			c0,2.8-0.8,4.9-2.3,6.4c-1.5,1.5-3.5,2.3-5.9,2.3c-2.4,0-4.4-0.8-5.9-2.3c-1.5-1.5-2.3-3.6-2.3-6.4V28.9h3.3v10.7
			C257.7,41.3,258.1,42.7,259,43.8z"/>
		<path fill="#FFFFFF" d="M278.4,40.2v8h-3.1V33.5h3.1v2.7c0.5-0.9,1.2-1.6,2.1-2.1c0.9-0.5,1.8-0.8,2.8-0.8c1.7,0,3,0.5,4,1.5
			c1,1,1.5,2.5,1.5,4.4v9h-3.1v-8.1c0-2.7-1.1-4.1-3.4-4.1c-1.1,0-2,0.4-2.8,1.1C278.8,37.8,278.4,38.9,278.4,40.2z"/>
		<path fill="#FFFFFF" d="M293.4,30.5c-0.4-0.4-0.6-0.8-0.6-1.4c0-0.5,0.2-1,0.6-1.4c0.4-0.4,0.8-0.6,1.4-0.6c0.5,0,1,0.2,1.4,0.6
			c0.4,0.4,0.6,0.8,0.6,1.4c0,0.5-0.2,1-0.6,1.4c-0.4,0.4-0.8,0.6-1.4,0.6C294.2,31.1,293.8,30.9,293.4,30.5z M296.3,48.2h-3.1V33.5
			h3.1V48.2z"/>
		<path fill="#FFFFFF" d="M304.6,48.2l-5.9-14.7h3.2l4.5,11.1l4.5-11.1h3.2l-5.9,14.7H304.6z"/>
		<path fill="#FFFFFF" d="M330.3,42.2h-11.5c0.1,1.1,0.6,1.9,1.5,2.6s1.9,1,3.1,1c1.8,0,3.2-0.6,4.2-1.7l1.8,1.9
			c-1.6,1.6-3.7,2.5-6.2,2.5c-2.1,0-3.8-0.7-5.3-2.1s-2.2-3.2-2.2-5.5s0.7-4.2,2.2-5.5c1.5-1.4,3.2-2,5.2-2c2,0,3.7,0.6,5.1,1.8
			c1.4,1.2,2.1,2.9,2.1,5V42.2z M318.7,39.7h8.4c0-1.2-0.4-2.2-1.2-2.8c-0.8-0.7-1.7-1-2.9-1s-2.2,0.3-3.1,1S318.7,38.6,318.7,39.7z
			"/>
		<path fill="#FFFFFF" d="M341.4,36.4c-1.5,0-2.7,0.5-3.5,1.5c-0.8,1-1.2,2.3-1.2,4v6.3h-3.1V33.5h3.1v3c0.5-0.9,1.2-1.7,2-2.3
			c0.9-0.6,1.8-0.9,2.7-0.9l0,3.1C341.5,36.4,341.4,36.4,341.4,36.4z"/>
		<path fill="#FFFFFF" d="M355.1,43.8c0,1.4-0.5,2.5-1.5,3.4s-2.3,1.3-3.9,1.3c-1.1,0-2.2-0.2-3.3-0.6c-1.2-0.4-2.2-0.9-3.1-1.6
			l1.5-2.4c1.7,1.3,3.4,1.9,5,1.9c0.7,0,1.3-0.2,1.7-0.5c0.4-0.3,0.6-0.7,0.6-1.2c0-0.7-1-1.4-2.9-2c-0.1-0.1-0.3-0.1-0.3-0.1
			c-3.1-0.8-4.6-2.2-4.6-4.1c0-1.4,0.5-2.5,1.6-3.3c1.1-0.8,2.4-1.2,4.1-1.2s3.3,0.5,4.8,1.5l-1.2,2.3c-1.2-0.8-2.5-1.2-3.9-1.2
			c-0.7,0-1.3,0.1-1.8,0.4c-0.5,0.3-0.7,0.7-0.7,1.2c0,0.5,0.2,0.8,0.7,1.1c0.3,0.2,0.8,0.3,1.4,0.5c0.6,0.1,1.1,0.3,1.6,0.4
			s0.9,0.3,1.3,0.5c0.4,0.2,0.9,0.4,1.4,0.8C354.6,41.4,355.1,42.4,355.1,43.8z"/>
		<path fill="#FFFFFF" d="M358.8,30.5c-0.4-0.4-0.6-0.8-0.6-1.4c0-0.5,0.2-1,0.6-1.4c0.4-0.4,0.8-0.6,1.4-0.6c0.5,0,1,0.2,1.4,0.6
			c0.4,0.4,0.6,0.8,0.6,1.4c0,0.5-0.2,1-0.6,1.4c-0.4,0.4-0.8,0.6-1.4,0.6C359.7,31.1,359.2,30.9,358.8,30.5z M361.7,48.2h-3.1V33.5
			h3.1V48.2z"/>
		<path fill="#FFFFFF" d="M370,36v7.5c0,0.7,0.2,1.3,0.6,1.7c0.4,0.4,0.9,0.6,1.5,0.6c0.7,0,1.3-0.3,1.9-1l1.3,2.2
			c-1.1,1-2.3,1.5-3.6,1.5c-1.3,0-2.4-0.5-3.4-1.4c-0.9-0.9-1.4-2.1-1.4-3.7V36h-1.9v-2.5h1.9v-4.6h3.1v4.6h3.9V36H370z"/>
		<path fill="#FFFFFF" d="M379.6,54c-1.3,0-2.6-0.5-3.7-1.5l1.4-2.5c0.6,0.6,1.3,0.9,2,0.9s1.3-0.2,1.7-0.7c0.4-0.5,0.6-1,0.6-1.6
			c0-0.3-2-5.3-5.9-15.1h3.3l4.4,10.8l4.4-10.8h3.3l-7.1,17.5c-0.4,1-1,1.7-1.8,2.3C381.4,53.8,380.6,54,379.6,54z"/>
		<path fill="#FFFFFF" d="M401.7,48.2V28.9h3.3v16.2h8.8v3.1H401.7z"/>
		<path fill="#FFFFFF" d="M417.1,30.5c-0.4-0.4-0.6-0.8-0.6-1.4c0-0.5,0.2-1,0.6-1.4c0.4-0.4,0.8-0.6,1.4-0.6c0.5,0,1,0.2,1.4,0.6
			c0.4,0.4,0.6,0.8,0.6,1.4c0,0.5-0.2,1-0.6,1.4c-0.4,0.4-0.8,0.6-1.4,0.6C417.9,31.1,417.4,30.9,417.1,30.5z M420,48.2h-3.1V33.5
			h3.1V48.2z"/>
		<path fill="#FFFFFF" d="M432.3,33.2c2,0,3.7,0.7,5.1,2c1.4,1.4,2.1,3.2,2.1,5.4s-0.7,4.1-2.1,5.5c-1.4,1.4-3,2.1-4.9,2.1
			c-1.9,0-3.5-0.8-5-2.4v2.2h-3.1V27.7h3.1V36C428.8,34.2,430.3,33.2,432.3,33.2z M427.5,40.9c0,1.4,0.4,2.5,1.3,3.4
			c0.8,0.9,1.9,1.3,3.1,1.3s2.3-0.4,3.2-1.3s1.4-2,1.4-3.4s-0.4-2.6-1.3-3.5s-1.9-1.4-3.2-1.4c-1.2,0-2.3,0.5-3.1,1.4
			S427.5,39.5,427.5,40.9z"/>
		<path fill="#FFFFFF" d="M450.7,36.4c-1.5,0-2.7,0.5-3.5,1.5c-0.8,1-1.2,2.3-1.2,4v6.3H443V33.5h3.1v3c0.5-0.9,1.2-1.7,2-2.3
			c0.9-0.6,1.8-0.9,2.7-0.9l0,3.1C450.8,36.4,450.8,36.4,450.7,36.4z"/>
		<path fill="#FFFFFF" d="M465.8,48.2H463v-2c-1.2,1.5-2.8,2.2-4.9,2.2c-1.5,0-2.8-0.4-3.8-1.3s-1.5-2-1.5-3.5s0.5-2.5,1.6-3.2
			c1.1-0.7,2.5-1.1,4.3-1.1h4v-0.6c0-2-1.1-2.9-3.3-2.9c-1.4,0-2.8,0.5-4.3,1.5l-1.4-1.9c1.8-1.4,3.8-2.1,6.1-2.1
			c1.7,0,3.1,0.4,4.2,1.3c1.1,0.9,1.6,2.3,1.6,4.1V48.2z M462.7,42.7v-1.2h-3.5c-2.2,0-3.3,0.7-3.3,2.1c0,0.7,0.3,1.3,0.8,1.6
			s1.3,0.6,2.3,0.6s1.8-0.3,2.6-0.8S462.7,43.6,462.7,42.7z"/>
		<path fill="#FFFFFF" d="M477.8,36.4c-1.5,0-2.7,0.5-3.5,1.5c-0.8,1-1.2,2.3-1.2,4v6.3h-3.1V33.5h3.1v3c0.5-0.9,1.2-1.7,2-2.3
			c0.9-0.6,1.8-0.9,2.7-0.9l0,3.1C477.9,36.4,477.9,36.4,477.8,36.4z"/>
		<path fill="#FFFFFF" d="M482.9,54c-1.3,0-2.6-0.5-3.7-1.5l1.4-2.5c0.6,0.6,1.3,0.9,2,0.9s1.3-0.2,1.7-0.7c0.4-0.5,0.6-1,0.6-1.6
			c0-0.3-2-5.3-5.9-15.1h3.3l4.4,10.8l4.4-10.8h3.3l-7.1,17.5c-0.4,1-1,1.7-1.8,2.3C484.8,53.8,483.9,54,482.9,54z"/>
	</g>
	<g>
		<path fill="#FFFFFF" d="M149.1,68.1v-4.2h13.4v18.2c0,3.2-0.8,5.6-2.4,7.2c-1.6,1.6-3.7,2.4-6.3,2.4c-3.2,0-6-1.1-8.2-3.4l2.6-3.7
			c1.8,1.7,3.5,2.6,5.3,2.6c1.2,0,2.2-0.4,3.1-1.2c0.9-0.8,1.3-2,1.3-3.7V68.1H149.1z"/>
		<path fill="#FFFFFF" d="M193,87.7c-2.8,2.7-6.2,4.1-10.3,4.1s-7.6-1.4-10.3-4.1c-2.8-2.7-4.2-6.1-4.2-10.2c0-4.1,1.4-7.5,4.2-10.2
			c2.8-2.7,6.2-4.1,10.3-4.1s7.6,1.4,10.3,4.1c2.8,2.7,4.2,6.1,4.2,10.2C197.2,81.6,195.8,85,193,87.7z M189.6,70.4
			c-1.9-1.9-4.2-2.9-6.9-2.9c-2.7,0-5,1-6.9,2.9c-1.9,1.9-2.8,4.3-2.8,7.1c0,2.8,0.9,5.1,2.8,7.1c1.9,1.9,4.2,2.9,6.9,2.9
			c2.7,0,5-1,6.9-2.9c1.9-1.9,2.8-4.3,2.8-7.1C192.4,74.8,191.5,72.4,189.6,70.4z"/>
		<path fill="#FFFFFF" d="M203.1,91.5V63.9h4.7v12h13.7v-12h4.7v27.6h-4.7V80.2h-13.7v11.3H203.1z"/>
		<path fill="#FFFFFF" d="M254.5,63.9h4.7v27.6h-5.1l-15.6-20.1v20.1h-4.7V63.9h4.7l16,20.6V63.9z"/>
		<path fill="#FFFFFF" d="M277.6,91.5V63.9h4.7v12H296v-12h4.7v27.6H296V80.2h-13.7v11.3H277.6z"/>
		<path fill="#FFFFFF" d="M327.7,63.9v4.4H313v7.3h13.2v4.1H313v7.4h15.2v4.4h-19.9V63.9H327.7z"/>
		<path fill="#FFFFFF" d="M354.8,63.9h4.7v27.6h-5.1l-15.6-20.1v20.1h-4.7V63.9h4.7l16,20.6V63.9z"/>
		<path fill="#FFFFFF" d="M389.2,72.9c0,4.6-2,7.4-6,8.6l7.2,10h-5.9l-6.6-9.3h-6.1v9.3h-4.7V63.9h10.3c4.2,0,7.2,0.7,9,2.1
			S389.2,69.8,389.2,72.9z M383,76.8c0.9-0.8,1.4-2.1,1.4-3.9c0-1.8-0.5-3-1.5-3.7c-1-0.7-2.7-1-5.2-1h-5.9V78h5.8
			C380.3,78,382,77.6,383,76.8z"/>
		<path fill="#FFFFFF" d="M395.9,63.9h4.7v27.6h-4.7V63.9z"/>
		<path fill="#FFFFFF" d="M408.2,63.9h4.7v13.5l12.6-13.5h5.9L420.4,76l11.3,15.5h-5.5l-9.2-12.1l-4,4.3v7.7h-4.7V63.9z"/>
		<path fill="#FFFFFF" d="M459.5,87.3c1.6,0,3-0.3,4.1-0.8c1.2-0.5,2.4-1.4,3.6-2.6l3,3.1c-2.9,3.2-6.5,4.9-10.6,4.9
			s-7.6-1.3-10.4-4c-2.8-2.7-4.1-6.1-4.1-10.2c0-4.1,1.4-7.5,4.2-10.3s6.3-4.1,10.6-4.1c4.3,0,7.9,1.6,10.7,4.7l-3,3.2
			c-1.3-1.3-2.6-2.1-3.7-2.6c-1.2-0.5-2.5-0.8-4.1-0.8c-2.8,0-5.1,0.9-7,2.7c-1.9,1.8-2.8,4.1-2.8,6.9c0,2.8,0.9,5.1,2.8,7
			C454.6,86.4,456.9,87.3,459.5,87.3z"/>
		<path fill="#FFFFFF" d="M475.9,91.5V63.9h4.7v23.2h12.6v4.4H475.9z"/>
		<path fill="#FFFFFF" d="M502.2,85.3l-2.8,6.3h-5l12.2-27.6h5l12.2,27.6h-5l-2.8-6.3H502.2z M514.1,81l-5-11.4l-5,11.4H514.1z"/>
		<path fill="#FFFFFF" d="M549.6,72.9c0,4.6-2,7.4-6,8.6l7.2,10H545l-6.6-9.3h-6.1v9.3h-4.7V63.9h10.3c4.2,0,7.2,0.7,9,2.1
			S549.6,69.8,549.6,72.9z M543.4,76.8c0.9-0.8,1.4-2.1,1.4-3.9c0-1.8-0.5-3-1.5-3.7c-1-0.7-2.7-1-5.2-1h-5.9V78h5.8
			C540.7,78,542.5,77.6,543.4,76.8z"/>
		<path fill="#FFFFFF" d="M556.3,63.9h4.7v13.5l12.6-13.5h5.9L568.5,76l11.3,15.5h-5.5L565,79.5l-4,4.3v7.7h-4.7V63.9z"/>
		<path fill="#FFFFFF" d="M603.5,63.9v4.4h-14.7v7.3H602v4.1h-13.2v7.4H604v4.4h-19.9V63.9H603.5z"/>
		<path fill="#FFFFFF" d="M152.1,124.3l-2.8,6.3h-5l12.2-27.6h5l12.2,27.6h-5l-2.8-6.3H152.1z M164,120l-5-11.4l-5,11.4H164z"/>
		<path fill="#FFFFFF" d="M182.1,107.3v7.6h12.2v4.3h-12.2v11.4h-4.7v-27.6h18.4l0,4.3H182.1z"/>
		<path fill="#FFFFFF" d="M223.4,111.9c0,4.6-2,7.4-6,8.6l7.2,10h-5.9l-6.6-9.3H206v9.3h-4.7v-27.6h10.3c4.2,0,7.2,0.7,9,2.1
			S223.4,108.8,223.4,111.9z M217.2,115.8c0.9-0.8,1.4-2.1,1.4-3.9c0-1.8-0.5-3-1.5-3.7c-1-0.7-2.7-1-5.2-1H206v9.9h5.8
			C214.4,117,216.2,116.6,217.2,115.8z"/>
		<path fill="#FFFFFF" d="M230.1,102.9h4.7v27.6h-4.7V102.9z"/>
		<path fill="#FFFFFF" d="M255,126.3c1.6,0,3-0.3,4.1-0.8c1.2-0.5,2.4-1.4,3.6-2.6l3,3.1c-2.9,3.2-6.5,4.9-10.6,4.9s-7.6-1.3-10.4-4
			c-2.8-2.7-4.1-6.1-4.1-10.2c0-4.1,1.4-7.5,4.2-10.3s6.3-4.1,10.6-4.1c4.3,0,7.9,1.6,10.7,4.7l-3,3.2c-1.3-1.3-2.6-2.1-3.7-2.6
			c-1.2-0.5-2.5-0.8-4.1-0.8c-2.8,0-5.1,0.9-7,2.7c-1.9,1.8-2.8,4.1-2.8,6.9c0,2.8,0.9,5.1,2.8,7C250.2,125.4,252.4,126.3,255,126.3
			z"/>
		<path fill="#FFFFFF" d="M275.4,124.3l-2.8,6.3h-5l12.2-27.6h5l12.2,27.6h-5l-2.8-6.3H275.4z M287.3,120l-5-11.4l-5,11.4H287.3z"/>
		<path fill="#FFFFFF" d="M321.5,102.9h4.7v27.6h-5.1l-15.6-20.1v20.1h-4.7v-27.6h4.7l16,20.6V102.9z"/>
		<path fill="#FFFFFF" d="M337.7,124.3l-2.8,6.3h-5l12.2-27.6h5l12.2,27.6h-5l-2.8-6.3H337.7z M349.6,120l-5-11.4l-5,11.4H349.6z"/>
		<path fill="#FFFFFF" d="M373.9,130.5v-27.6h4.7v23.2h12.6v4.4H373.9z"/>
		<path fill="#FFFFFF" d="M396.3,102.9h4.7v27.6h-4.7V102.9z"/>
		<path fill="#FFFFFF" d="M420.7,130.5h-12.1v-27.6h10.7c1.9,0,3.5,0.2,4.8,0.7c1.4,0.4,2.4,1.1,3,1.8c1.3,1.4,1.9,3,1.9,4.8
			c0,2.2-0.7,3.8-2.1,4.8c-0.5,0.4-0.8,0.6-1,0.7c-0.2,0.1-0.5,0.2-1,0.5c1.7,0.4,3.1,1.1,4.1,2.3c1,1.2,1.5,2.6,1.5,4.4
			c0,1.9-0.7,3.6-2,5.1C427.1,129.7,424.4,130.5,420.7,130.5z M413.2,114.4h5.9c3.4,0,5.1-1.1,5.1-3.4c0-1.3-0.4-2.3-1.2-2.8
			s-2.1-0.9-3.8-0.9h-6V114.4z M413.2,126.2h7.3c1.7,0,3-0.3,3.9-0.8s1.4-1.6,1.4-3.1c0-2.4-2-3.7-5.9-3.7h-6.7V126.2z"/>
		<path fill="#FFFFFF" d="M458.5,111.9c0,4.6-2,7.4-6,8.6l7.2,10h-5.9l-6.6-9.3h-6.1v9.3h-4.7v-27.6h10.3c4.2,0,7.2,0.7,9,2.1
			S458.5,108.8,458.5,111.9z M452.3,115.8c0.9-0.8,1.4-2.1,1.4-3.9c0-1.8-0.5-3-1.5-3.7c-1-0.7-2.7-1-5.2-1h-5.9v9.9h5.8
			C449.6,117,451.4,116.6,452.3,115.8z"/>
		<path fill="#FFFFFF" d="M469.1,124.3l-2.8,6.3h-5l12.2-27.6h5l12.2,27.6h-5l-2.8-6.3H469.1z M481.1,120l-5-11.4l-5,11.4H481.1z"/>
		<path fill="#FFFFFF" d="M516.6,111.9c0,4.6-2,7.4-6,8.6l7.2,10h-5.9l-6.6-9.3h-6.1v9.3h-4.7v-27.6h10.3c4.2,0,7.2,0.7,9,2.1
			S516.6,108.8,516.6,111.9z M510.4,115.8c0.9-0.8,1.4-2.1,1.4-3.9c0-1.8-0.5-3-1.5-3.7c-1-0.7-2.7-1-5.2-1h-5.9v9.9h5.8
			C507.6,117,509.4,116.6,510.4,115.8z"/>
		<path fill="#FFFFFF" d="M533.6,130.5h-4.7v-10.9l-10.3-16.7h5.1l7.5,12.6l7.5-12.6h5.1l-10.3,16.7V130.5z"/>
	</g>
</g>
</svg>
