<?xml version="1.0" encoding="utf-8"?>
<!-- Generator: Adobe Illustrator 18.1.1, SVG Export Plug-In . SVG Version: 6.00 Build 0)  -->
<svg version="1.1" id="Layer_1" xmlns="http://www.w3.org/2000/svg" xmlns:xlink="http://www.w3.org/1999/xlink" x="0px" y="0px"
	 viewBox="0 0 183.3 129" enable-background="new 0 0 183.3 129" xml:space="preserve">
<path fill="#F6F3F2" d="M57.2,73.6c6.6,0.4,9.2,6.5,13.7,9.8c1.2,0.9,2.4,2.5,4,1.4c1.6-1.1,0.8-2.9,0.1-4.3
	c-2.8-5.6-5.9-11-11.8-13.9c-2.3-1.1-5-3.1-7.5-1.6c-2.6,1.6,0.4,4.5-0.5,6.8c-1.4-1-2.5-2.9-4.6-1.9c-1.2,0.6-0.9,1.9-0.7,3
	c0.8,5.3,12.1,17.1,17.5,18.2c1.3,0.3,2.8,0.9,3.7-0.5c1.1-1.7-0.3-3-1.3-4.1C65.7,82.2,61.4,77.9,57.2,73.6z"/>
<path fill="#F6F3F2" d="M117.1,135.4c2.5,2.8,5.1,5.6,7.6,8.3c1.2,1.2,2,3.7,3.9,2.9c2.3-1,1-3.5,0.7-5.4c-1-6.1-5-10.3-9.4-14.1
	c-2.7-2.3-6.1-5.6-9.2-2.9c-2.5,2.1,1.9,4.8,2.6,7.4c-1.7-1-3.4-2.1-5.1-3.1c-1.1-0.7-2.3-1.7-3.7-0.8c-1.3,0.9-1.1,2.4-0.6,3.6
	c3.3,7.2,7,14,14.6,17.6c1.4,0.6,3,1.8,4.2,0.1c0.9-1.3-0.2-2.5-0.9-3.6C120.1,142.2,116.7,139.7,117.1,135.4z"/>
<path fill="#F6F3F2" d="M90.4,67c-1.5-2.1-2-4.4-2-6.9c0-7.3-0.1-14.7-0.3-22c0-2,0.2-4.4-1.9-5.3c-2.5-1-3.4,1.5-4.6,3
	c-6.7,8.4-6.5,19.9,0.6,31.1C86.5,73.7,86.5,73.7,90.4,67c1.3,1.9,0.6,5.6,3.6,5.8c3.1,0.2,4.1-2.9,5.5-5.2
	c6.7-10.8,3.4-21-2.2-30.9c-0.9-1.7-2.3-3.9-4.6-3c-2.2,0.9-0.8,3.1-0.7,4.7C92.3,48,92.8,57.6,90.4,67z"/>
<path fill="#F6F3F2" d="M21.1,102.1c0.7-4.5,4.1-2.5,6.4-2.3c8.7,0.7,17.3,3,26.2,0.8c-9.8-6.4-19.8-11.5-32-7.2
	c-7.5,2.7-8.9,7.7-4.3,14.4c9.6,9.2,20.5,11.1,32.7,6.1c2.4-1,5.8-1.7,5.5-5c-0.4-3.4-3.9-3-6.5-3.4C39.8,104,30.3,104.5,21.1,102.1
	z"/>
<path fill="#F6F3F2" d="M92.5,161.9c2.8,5.6,1.9,11.2,2.2,16.7c0.1,1.9-0.7,4.5,1.7,5.3c2.4,0.7,3.3-1.8,4.4-3.4
	c5.1-7.6,3.2-26.5-3.3-32.9c-1.1-1.1-2.3-1.8-3.2-0.2c-1.2,2.1-1.8,3.5-4.1,0.9c-2-2.3-3.5-0.5-4.7,1.3c-6.1,8.9-6,25.1,0.1,34.5
	c0.7,1.1,1.3,2.8,2.7,2.6c2.2-0.2,1.7-2.3,1.8-3.7C91,175.9,91.7,168.9,92.5,161.9z"/>
<path fill="#F6F3F2" d="M126.2,117.6c4.6,3.6,10.4,6.1,16.2,8.2c8.2,2.9,16.2,3.5,22.9-3.7c1.7-1.9,5.3-3,3.9-6.2
	c-1.2-2.7-4.3-1.7-6.7-1.4c-3.8,0.5-7.6,0.4-11.3-0.6c-7.4-2.1-15-2.1-22.6-2.9c-1.9-0.2-4.3-1-5.2,1.6
	C122.9,114.7,124.6,115.9,126.2,117.6z"/>
<path fill="#F6F3F2" d="M165.2,104c-9.5-9.3-26.6-11.4-36.5-4.2c-1.6,1.2-3.6,2.3-3.2,4.7c0.4,2.2,2.6,2.4,4.3,2.6
	c11,1.4,22,2.7,33.1,3.9c1.7,0.2,3.9,0.1,4.7-1.8C168.4,106.9,166.5,105.5,165.2,104z"/>
<path fill="#F6F3F2" d="M58.8,142.7c-0.7,1.1-4.2,2.5-2.2,5.2c1.6,2.2,4.7,1.2,6.8,0.1c5.9-3,11-6.9,12.9-13.7
	c0.4-1.5,1.3-3.2-0.2-4.3c-1.6-1.2-2.9,0.2-4.1,1.2C67.8,134.7,63.7,138.4,58.8,142.7z"/>
<path fill="#F6F3F2" d="M57.4,129.2c-1.1,2.3-5.7,4.7-3.2,7.8c1.7,2,4.8-1.8,7.2-3.1c0.4-0.2,0.8-0.5,1.1-0.8
	c2.3-2.3,7.7-4.3,4.9-7.8c-2.3-2.8-6.2,1.1-9.1,3.1C58,128.5,57.9,128.7,57.4,129.2z"/>
<path fill="#F6F3F2" d="M92.8,121.2c1-2.9,0.4-5.1-1.5-6.4c-2.9-2-6.1-2.9-8.9,0.1c-1.3,1.4-1.5,4.1,0.1,4.7
	C85.8,120.7,89.5,120.7,92.8,121.2z"/>
<path fill="#F6F3F2" d="M103.2,111.1c0.9-0.7,1.3-1.5,0.6-2.3c-1.3-1.5-3.1-1.4-4.8-0.8c-1.2,0.5-1.7,1.5-0.6,2.4
	C99.8,111.6,101.5,111.7,103.2,111.1z"/>
<path fill="#F6F3F2" d="M83.1,108.5c1-0.7,1.3-1.6,0.5-2.3c-1.5-1.4-3.2-1.3-4.9-0.4c-0.9,0.5-1.2,1.5-0.4,2.2
	C79.7,109.4,81.5,109.2,83.1,108.5z"/>
<path fill="#F6F3F2" d="M92.2,101.2c1.3-1.7,0.4-3.3-0.5-4.8c-0.5-0.7-1.3-1.5-2.1-0.9c-1.7,1.4-0.7,3.2,0,4.7
	C90.1,101.3,90.9,102,92.2,101.2z"/>
<path fill="#F6F3F2" d="M80.5,99.7c0.8,0.4,1.6,0.8,2.3,0.1c0.7-0.8,0.1-1.6-0.6-2.1c-0.7-0.5-1.6-0.8-2.3-0.1
	C79.3,98.4,79.8,99.1,80.5,99.7z"/>
<path fill="#F6F3F2" d="M92.5,161.9c-0.8,7-1.5,14-2.4,21c-0.2,1.4,0.3,3.5-1.8,3.7c-1.4,0.1-2-1.5-2.7-2.6
	c-6.1-9.4-6.1-25.5-0.1-34.5c1.2-1.8,2.8-3.6,4.7-1.3c2.3,2.7,3,1.2,4.1-0.9c0.9-1.6,2.1-0.9,3.2,0.2c6.5,6.5,8.4,25.4,3.3,32.9
	c-1.1,1.6-2,4.1-4.4,3.4c-2.4-0.7-1.6-3.4-1.7-5.3C94.4,173.1,95.3,167.5,92.5,161.9z"/>
<path fill="#F6F3F2" d="M126.2,117.6c-1.6-1.7-3.3-2.9-2.7-4.9c0.9-2.6,3.3-1.8,5.2-1.6c7.5,0.8,15.2,0.8,22.6,2.9
	c3.7,1,7.5,1.1,11.3,0.6c2.4-0.3,5.5-1.3,6.7,1.4c1.4,3.2-2.2,4.3-3.9,6.2c-6.7,7.1-14.7,6.6-22.9,3.7
	C136.6,123.6,130.8,121.2,126.2,117.6z"/>
<path fill="#F6F3F2" d="M165.2,104c1.3,1.5,3.3,2.8,2.3,5.1c-0.8,1.9-3,2-4.7,1.8c-11-1.2-22-2.5-33.1-3.9c-1.7-0.2-3.9-0.5-4.3-2.6
	c-0.4-2.4,1.6-3.5,3.2-4.7C138.6,92.7,155.7,94.7,165.2,104z"/>
<path fill="#F6F3F2" d="M21.1,102.1c9.2,2.3,18.7,1.8,27.9,3.4c2.5,0.4,6.1,0,6.5,3.4c0.4,3.3-3.1,4-5.5,5
	c-12.2,5-23.1,3.1-32.7-6.1C18.6,105.9,19.8,104,21.1,102.1z"/>
<path fill="#F6F3F2" d="M90.4,67c-3.9,6.7-3.9,6.7-8.2-0.1c-7.1-11.3-7.3-22.7-0.6-31.1c1.2-1.5,2.1-4,4.6-3
	c2.2,0.9,1.9,3.3,1.9,5.3c0.2,7.3,0.3,14.7,0.3,22C88.5,62.6,89,64.9,90.4,67L90.4,67z"/>
<path fill="#F6F3F2" d="M90.4,67c2.3-9.4,1.8-19,1.6-28.5c0-1.7-1.5-3.9,0.7-4.7c2.3-0.9,3.7,1.3,4.6,3c5.6,9.9,8.9,20.1,2.2,30.9
	c-1.4,2.2-2.4,5.4-5.5,5.2C91.1,72.6,91.8,68.9,90.4,67L90.4,67z"/>
<path fill="#F6F3F2" d="M21.1,102.1c-1.3,1.9-2.5,3.8-3.8,5.7c-4.6-6.8-3.2-11.8,4.3-14.4c12.2-4.3,22.3,0.8,32,7.2
	c-8.9,2.3-17.5-0.1-26.2-0.8C25.2,99.6,21.8,97.6,21.1,102.1z"/>
<path fill="#F6F3F2" d="M113.3,131.7c-0.6-2.7-5-5.3-2.6-7.4c3.2-2.7,6.6,0.6,9.2,2.9c4.4,3.8,8.4,8,9.4,14.1
	c0.3,1.8,1.6,4.4-0.7,5.4c-1.9,0.9-2.8-1.6-3.9-2.9c-2.6-2.8-5.1-5.6-7.6-8.3C115.8,134.2,114.6,132.9,113.3,131.7z"/>
<path fill="#F6F3F2" d="M113.3,131.7c1.2,1.3,2.5,2.5,3.7,3.8c-0.3,4.3,3,6.8,4.8,10c0.6,1.1,1.8,2.4,0.9,3.6
	c-1.2,1.7-2.8,0.5-4.2-0.1c-7.6-3.6-11.3-10.4-14.6-17.6c-0.5-1.2-0.7-2.8,0.6-3.6c1.3-0.9,2.5,0.1,3.7,0.8
	C109.9,129.6,111.6,130.6,113.3,131.7z"/>
<path fill="#F6F3F2" d="M57.2,73.6c4.2,4.3,8.5,8.5,12.6,12.8c1,1.1,2.4,2.4,1.3,4.1c-0.9,1.3-2.4,0.7-3.7,0.5
	C62.1,89.9,50.8,78.2,50,72.8c-0.2-1.1-0.4-2.4,0.7-3c2.1-1,3.2,0.9,4.6,1.9C55.9,72.4,56.6,73,57.2,73.6z"/>
<path fill="#F6F3F2" d="M58.8,142.7c4.8-4.3,9-8,13.2-11.6c1.1-1,2.5-2.4,4.1-1.2c1.5,1.2,0.6,2.9,0.2,4.3
	c-1.9,6.8-7,10.7-12.9,13.7c-2.1,1.1-5.2,2.1-6.8-0.1C54.6,145.2,58.1,143.8,58.8,142.7z"/>
<path fill="#F6F3F2" d="M57.2,73.6c-0.6-0.6-1.3-1.3-1.9-1.9c0.9-2.3-2.1-5.2,0.5-6.8c2.5-1.5,5.1,0.5,7.5,1.6
	c5.9,2.9,9,8.3,11.8,13.9c0.7,1.3,1.4,3.2-0.1,4.3c-1.6,1.1-2.8-0.5-4-1.4C66.4,80.1,63.8,74,57.2,73.6z"/>
<path fill="#F6F3F2" d="M57.4,129.2c0.6-0.6,0.7-0.7,0.9-0.9c2.8-2,6.8-5.9,9.1-3.1c2.9,3.5-2.6,5.5-4.9,7.8
	c-0.3,0.3-0.7,0.6-1.1,0.8c-2.4,1.3-5.5,5.2-7.2,3.1C51.6,134,56.3,131.6,57.4,129.2z"/>
<path fill="#F6F3F2" d="M92.8,121.2c-3.4-0.5-7-0.5-10.3-1.6c-1.6-0.5-1.4-3.3-0.1-4.7c2.8-3.1,6-2.1,8.9-0.1
	C93.3,116.1,93.9,118.3,92.8,121.2z"/>
<path fill="#F6F3F2" d="M103.2,111.1c-1.6,0.7-3.4,0.6-4.8-0.6c-1.1-0.9-0.6-2,0.6-2.4c1.7-0.6,3.4-0.7,4.8,0.8
	C104.4,109.6,104,110.4,103.2,111.1z"/>
<path fill="#F6F3F2" d="M83.1,108.5c-1.6,0.7-3.4,0.9-4.9-0.5c-0.8-0.8-0.5-1.7,0.4-2.2c1.7-0.9,3.5-1,4.9,0.4
	C84.4,106.9,84.1,107.8,83.1,108.5z"/>
<path fill="#F6F3F2" d="M92.2,101.2c-1.3,0.8-2.2,0.1-2.6-0.9c-0.6-1.5-1.6-3.3,0-4.7c0.8-0.7,1.6,0.1,2.1,0.9
	C92.6,97.9,93.5,99.4,92.2,101.2z"/>
<path fill="#F6F3F2" d="M80.5,99.7c-0.7-0.6-1.2-1.3-0.6-2.1c0.7-0.8,1.6-0.5,2.3,0.1c0.7,0.5,1.3,1.3,0.6,2.1
	C82.2,100.5,81.3,100.1,80.5,99.7z"/>
<path fill="#F6F3F2" d="M129.9,86.5c2.6-5.4,2.3-10.3-3.3-13.8c-0.3-3.8-3.1-3.2-5.5-3c-8.8,0.6-14.1,5.9-14.9,15
	c-0.6,7.4,0.9,8.6,8.1,5.8c-0.1,2.1-2.7,5.8,1.3,5.5C121.8,95.5,127,92.4,129.9,86.5z M117,82.2L117,82.2c0.8-0.5,1.7-1.4,2.6-1.3
	c0.3,0,0.6,0.1,0.9,0.4c1.3,1.1,0.2,2.5-0.6,3.5c-1.3,1.5-2.7,2.9-4.1,4.4C115.4,86.6,115.9,84.4,117,82.2z"/>
</svg>
