<?xml version="1.0" encoding="utf-8"?>
<!-- Generator: Adobe Illustrator 18.1.1, SVG Export Plug-In . SVG Version: 6.00 Build 0)  -->
<svg version="1.1" id="Layer_1" xmlns="http://www.w3.org/2000/svg" xmlns:xlink="http://www.w3.org/1999/xlink" x="0px" y="0px"
	 viewBox="0 0 237.7 228.3" enable-background="new 0 0 237.7 228.3" xml:space="preserve">
<path fill="#F8FAFB" d="M253,49.1c-4.1,1.2-7.4,3.5-9.5,7.3c-3.3,2.3-6.7,4.3-9.8,6.8c-14.1,11.7-17.2,11.8-30.4-0.4
	c-14.1-13-28-26.3-42.1-39.3c-3.8-3.5-7.8-6.9-12-9.9c-2.2-1.6-5.4-2.8-7.4,0.4c-1.5,2.5,0.7,4.5,2.4,6.2c21.4,21,42.8,42,64.4,62.8
	c6,5.7,13.1,6.3,19.3,0.3c8.1-7.8,15.7-16,23.4-24c1.6-2.3,3.1-4.7,4.7-7c15.3-10.4,25.3-26,37.9-39.1c2-2.1,4.6-5.6,1.6-8.4
	c-3-2.8-6.1,0.2-8.2,2.3C274.7,19.9,261.9,33,253,49.1z"/>
<path fill="#F8FAFB" d="M221.7,136.6c-6.5,0-11.4,3.4-15.4,8.1c-7.4,8.5-15.5,16.1-23.6,23.9c-13,12.4-23.2,27.5-37.7,38.5
	c-2.6,2-6.3,5.7-3.4,9.1c3.6,4.1,7.2,0,10.3-2.3c1.9-1.4,3.6-3.2,5.3-4.8c14.2-14.1,28.1-28.4,42.5-42.3c21.7-21,17.2-26.3,45.1,2.2
	c13.5,13.7,26.8,27.4,41.7,39.6c3.5,2.9,8.4,5.9,11.8,2.4c4-4-1.7-7.2-4.1-9.6c-20.4-20.3-41.1-40.3-61.8-60.4
	C229.7,138,225.9,136.5,221.7,136.6z"/>
<path fill="#F8FAFB" d="M324.5,178.5c-1-3.6-4-6.3-7.1-8.8c-18.3-15-34.8-31.9-51.7-48.3c-8.1-7.9-9.4-14.2-0.9-23
	c19.4-20.1,37.5-41.5,58.9-59.6c3-2.6,7.2-5.5,3.6-9.8c-3.2-3.8-6.6-0.7-9.2,1.8C295.1,53.3,272,76,248.8,98.5
	c-7.6,7.3-7.4,13.9-0.5,21.7c13.3,14.9,29.8,26.4,43.5,40.9c6.4,6.7,14,13,21.2,19.2c2.5,2.1,5.6,3.2,9,2.3
	C323.9,182.2,324.6,180.8,324.5,178.5z"/>
<path fill="#F8FAFB" d="M227.1,190.8c-1.7-6.4,2-17.3-7.6-17.2c-7.5,0.1-6.6,10.6-6.5,17c0.1,6.8-1.6,17.8,6.6,17.9
	C228.2,208.6,225.4,197.4,227.1,190.8z"/>
<path fill="#F8FAFB" d="M256.2,197.6c0.1-5.5-14.1-23.2-18.4-24.3c-4.7-1.2-4.6,2-4,4.8c2.1,9.6,8.4,16.2,16.1,21.5
	C253.5,202.1,256,200.7,256.2,197.6z"/>
<path fill="#F8FAFB" d="M204.1,183.1c0-4.1-1-6.1-5-5.1c-5.9,1.6-16.7,16.2-16.4,22.3c0.2,3.6,2,5.7,5.2,3.6
	C195.6,198.6,200.7,191.1,204.1,183.1z"/>
<path fill="#F8FAFB" d="M310.3,76.2c-0.8-4.2-3.4-3.4-5.6-2.7c-8.9,3-16.1,8.3-20.8,16.6c-1.2,2.1-2.7,4.5-0.2,6.4
	c2.3,1.8,4.6,0.1,6.4-1.3c5.8-4.8,11.5-9.6,17.1-14.6C308.5,79.3,309.4,77.4,310.3,76.2z"/>
<path fill="#F8FAFB" d="M255,24.3c0.5-2.3,1.7-4.9-1.7-6c-4-1.3-14.2,11.1-15.1,18.4c-0.4,3-1.3,8,3.4,7
	C251.5,41.5,253.2,32.6,255,24.3z"/>
<path fill="#F8FAFB" d="M226.1,32.1c-0.5-3.6-0.9-7.5-1.6-11.4c-0.5-2.7-0.8-6.2-4.2-6.3c-4.3-0.2-4.5,3.8-4.9,6.9
	c-0.8,6.4,0.4,12.6,2,18.8c0.6,2.2,1.1,5.2,4,5c2.9-0.2,3.1-3.2,3.6-5.5C225.6,37.2,225.7,34.9,226.1,32.1z"/>
<path fill="#F8FAFB" d="M148.2,101.5c3.3-0.2,6.7,0.1,7.6-3.2c1-3.4-2.1-4.8-4.5-6.1c-6.9-3.5-14-5.7-21.7-3.3
	c-1.7,0.5-2.6,2.6-1.2,3.8C134,98,141.2,100.2,148.2,101.5z"/>
<path fill="#F8FAFB" d="M158,113.9c-11.5-5.6-20.8-4.9-30.1-3.2c-1.9,0.3-4.3,1-4.4,3.3c-0.1,3.1,2.8,3.6,5.1,3.9
	C137.6,119.4,146.6,119.7,158,113.9z"/>
<path fill="#F8FAFB" d="M302.7,135.8c2.3-1.1,8,0.3,6.5-4.2c-2.2-6.7-9.4-7.8-15.6-8.9c-2.8-0.5-6.6,0.3-6,3.8
	C288.9,134.5,296.2,134.5,302.7,135.8z"/>
<path fill="#F8FAFB" d="M190.6,25.2c-3.2-0.1-4.8,1.5-3.5,3.6c4.1,6.9,9.7,12.9,17.4,15.4c3.7,1.2,4.7-2.8,3.2-5.6
	C203.9,31.6,196.8,28.5,190.6,25.2z"/>
<path fill="#F8FAFB" d="M129.4,143c11.4,0.7,17.4-4.1,23.7-8c2-1.3,4.2-3.2,2.6-5.9c-1.5-2.5-4.2-1.7-6.5-1
	C141.8,130.4,136.5,135.5,129.4,143z"/>
<path fill="#F8FAFB" d="M317.9,105.1c-11.4-3.6-19.5-3.6-27.6-1.2c-2.2,0.7-4.8,1.9-3.9,4.9c0.6,2.2,3,2.5,4.9,2.2
	C299.3,109.8,307.7,110.3,317.9,105.1z"/>
<path fill="#F8FAFB" d="M228.6,100.5c-1.8-0.2-3.2,0.5-3.7,2.2c-0.6,2.2,0.3,4,2.5,4.7c2.2,0.7,4-0.2,4.3-2.6
	C232.1,102.6,230.7,101.2,228.6,100.5z"/>
<path fill="#F8FAFB" d="M209.5,119.9c0.1,1.7,0.9,3,2.5,3.5c1.8,0.5,3.2-0.4,3.5-2.1c0.4-2.2-0.7-3.9-3-4.1
	C210.7,116.9,209.7,118.1,209.5,119.9z"/>
<path fill="#F8FAFB" d="M221.7,136.6c4.2,0,8,1.5,10.9,4.3c20.7,20,41.4,40,61.8,60.4c2.4,2.4,8.1,5.6,4.1,9.6
	c-3.5,3.5-8.3,0.5-11.8-2.4c-14.9-12.1-28.3-25.9-41.7-39.6c-27.9-28.5-23.5-23.2-45.1-2.2c-14.4,13.9-28.3,28.2-42.5,42.3
	c-1.7,1.7-3.4,3.5-5.3,4.8c-3.1,2.2-6.7,6.4-10.3,2.3c-3-3.4,0.7-7.1,3.4-9.1c14.5-11,24.7-26.1,37.7-38.5
	c8.1-7.8,16.2-15.4,23.6-23.9C210.3,140,215.2,136.6,221.7,136.6z"/>
<path fill="#F8FAFB" d="M199.3,109.7c0.9,3.4-2.4,6-4.1,8.6c-4.8,7.3-4.4,4.2-11.5,13.1c-5,6.2-10.4,12.4-16.7,17.1
	c-15.7,11.9-29.3,26-42.2,40.7c-1.9,2.2-4.1,6.3-7.6,3.1c-2.5-2.3,0.1-5.3,1.8-7.4c10.2-12.8,20.5-25.7,33-36.3
	c9.6-8.1,17.4-17.7,25.7-26.8c5.7-6.2,5.2-12.1-0.8-17.8c-17.6-16.9-33.6-35.5-52.5-51.1c-4.3-3.6-8.9-7-10.9-12.5
	c-1.1-3.1-1.8-6.5,3.6-7c7.5,4.3,14.5,9.6,20.6,15.9c17.4,18.2,36.9,34.3,54.2,52.6C192.1,101.9,198.2,105.4,199.3,109.7z"/>
<path fill="#F8FAFB" d="M324.5,178.5c0.1,2.4-0.7,3.7-2.4,4.2c-3.4,0.9-6.5-0.2-9-2.3c-7.3-6.2-14.9-12.4-21.2-19.2
	c-13.8-14.5-30.3-26-43.5-40.9c-7-7.8-7.1-14.4,0.5-21.7C272,76,295.1,53.3,318.3,30.7c2.6-2.5,6-5.7,9.2-1.8
	c3.5,4.3-0.6,7.2-3.6,9.8c-21.4,18.1-39.5,39.5-58.9,59.6c-8.5,8.8-7.3,15.1,0.9,23c16.9,16.4,33.4,33.3,51.7,48.3
	C320.5,172.2,323.6,174.8,324.5,178.5z"/>
<path fill="#F8FAFB" d="M251.4,59.1c-7.8,8-15.4,16.3-23.5,24c-6.3,6-13.4,5.4-19.3-0.3C187,62.1,165.6,41,144.2,20.1
	c-1.7-1.7-3.9-3.6-2.4-6.2c2-3.2,5.2-2,7.4-0.4c4.2,3,8.2,6.4,12,9.9c14.1,13.1,28,26.3,42.1,39.3c13.2,12.2,16.3,12.1,30.4,0.4
	c3.1-2.5,6.5-4.6,9.8-6.8C246.1,57.3,248.8,58.2,251.4,59.1z"/>
<path fill="#F8FAFB" d="M253,49.1c9-16.1,21.7-29.1,34.5-42.1c2.1-2.1,5.2-5.1,8.2-2.3c3,2.8,0.4,6.3-1.6,8.4
	c-12.6,13.1-22.6,28.7-37.9,39.1C255,51.1,254,50.1,253,49.1z"/>
<path fill="#F8FAFB" d="M227.1,190.8c-1.7,6.6,1.1,17.8-7.5,17.7c-8.3-0.1-6.6-11.2-6.6-17.9c-0.1-6.4-1-16.9,6.5-17
	C229.1,173.5,225.4,184.4,227.1,190.8z"/>
<path fill="#F8FAFB" d="M256.2,197.6c-0.1,3.1-2.7,4.5-6.2,2.1c-7.7-5.3-14-12-16.1-21.5c-0.6-2.9-0.7-6,4-4.8
	C242.1,174.4,256.3,192,256.2,197.6z"/>
<path fill="#F8FAFB" d="M204.1,183.1c-3.4,8-8.5,15.5-16.2,20.8c-3.2,2.2-5,0.1-5.2-3.6c-0.3-6.1,10.5-20.7,16.4-22.3
	C203,177,204.1,179,204.1,183.1z"/>
<path fill="#F8FAFB" d="M310.3,76.2c-0.9,1.3-1.8,3.1-3.2,4.4c-5.6,5-11.3,9.8-17.1,14.6c-1.8,1.5-4.1,3.1-6.4,1.3
	c-2.4-1.9-0.9-4.3,0.2-6.4c4.7-8.3,11.9-13.6,20.8-16.6C306.9,72.8,309.5,71.9,310.3,76.2z"/>
<path fill="#F8FAFB" d="M255,24.3c-1.8,8.3-3.5,17.2-13.3,19.4c-4.7,1-3.8-4-3.4-7c0.9-7.3,11.1-19.7,15.1-18.4
	C256.8,19.4,255.5,22,255,24.3z"/>
<path fill="#F8FAFB" d="M226.1,32.1c-0.4,2.7-0.6,5.1-1.1,7.4c-0.5,2.2-0.7,5.3-3.6,5.5c-3,0.2-3.5-2.7-4-5
	c-1.5-6.2-2.8-12.4-2-18.8c0.4-3.1,0.6-7,4.9-6.9c3.4,0.1,3.7,3.7,4.2,6.3C225.2,24.6,225.6,28.6,226.1,32.1z"/>
<path fill="#F8FAFB" d="M148.2,101.5c-7-1.3-14.1-3.5-19.9-8.7c-1.3-1.2-0.4-3.3,1.2-3.8c7.7-2.4,14.9-0.3,21.7,3.3
	c2.4,1.2,5.5,2.6,4.5,6.1C154.8,101.6,151.5,101.3,148.2,101.5z"/>
<path fill="#F8FAFB" d="M158,113.9c-11.4,5.8-20.3,5.5-29.4,4c-2.2-0.4-5.1-0.9-5.1-3.9c0.1-2.3,2.4-3,4.4-3.3
	C137.2,109,146.4,108.3,158,113.9z"/>
<path fill="#F8FAFB" d="M302.7,135.8c-6.5-1.3-13.7-1.3-15.1-9.3c-0.6-3.5,3.2-4.3,6-3.8c6.3,1.1,13.4,2.2,15.6,8.9
	C310.6,136.1,305,134.7,302.7,135.8z"/>
<path fill="#F8FAFB" d="M190.6,25.2c6.2,3.3,13.3,6.4,17.1,13.4c1.5,2.8,0.5,6.8-3.2,5.6c-7.8-2.5-13.3-8.4-17.4-15.4
	C185.8,26.7,187.4,25.1,190.6,25.2z"/>
<path fill="#F8FAFB" d="M129.4,143c7.1-7.5,12.4-12.5,19.8-14.8c2.3-0.7,5-1.5,6.5,1c1.5,2.7-0.7,4.6-2.6,5.9
	C146.8,138.9,140.8,143.7,129.4,143z"/>
<path fill="#F8FAFB" d="M317.9,105.1c-10.2,5.2-18.6,4.6-26.5,5.9c-1.9,0.3-4.3,0-4.9-2.2c-0.9-3,1.7-4.2,3.9-4.9
	C298.4,101.6,306.5,101.5,317.9,105.1z"/>
<path fill="#F8FAFB" d="M228.6,100.5c2.1,0.7,3.5,2.1,3.2,4.3c-0.3,2.4-2.1,3.3-4.3,2.6c-2.2-0.7-3.1-2.5-2.5-4.7
	C225.4,101,226.8,100.3,228.6,100.5z"/>
<path fill="#F8FAFB" d="M228.7,115.6c2.1,0.7,3.5,2.1,3.2,4.3c-0.3,2.4-2.1,3.3-4.3,2.6c-2.2-0.7-3.1-2.5-2.5-4.7
	C225.5,116.1,226.9,115.4,228.7,115.6z"/>
<path fill="#F8FAFB" d="M212.1,101.5c2.1,0.7,3.5,2.1,3.2,4.3c-0.3,2.4-2.1,3.3-4.3,2.6c-2.2-0.7-3.1-2.5-2.5-4.7
	C208.9,102,210.3,101.3,212.1,101.5z"/>
<path fill="#F8FAFB" d="M253,49.1c1,1,2,2,3.1,3.1c-1.5,2.3-3.1,4.7-4.6,7c-2.6-0.9-5.3-1.9-7.9-2.8C245.6,52.5,248.8,50.2,253,49.1
	z"/>
<path fill="#F8FAFB" d="M209.5,119.9c0.2-1.8,1.2-3,3-2.8c2.3,0.3,3.4,1.9,3,4.1c-0.3,1.8-1.7,2.6-3.5,2.1
	C210.3,122.9,209.5,121.6,209.5,119.9z"/>
</svg>
